<svg width="24" height="24" viewBox="0 0 24 24" fill="none" xmlns="http://www.w3.org/2000/svg">
<path fill-rule="evenodd" clip-rule="evenodd" d="M1.25 12C1.25 6.06294 6.06294 1.25 12 1.25C17.9371 1.25 22.75 6.06294 22.75 12C22.75 14.4729 21.9143 16.7517 20.5109 18.5679C19.0857 16.7908 17.2179 15.4728 15.1882 14.7859C16.7327 13.7549 17.75 11.9963 17.75 10C17.75 6.82436 15.1756 4.25 12 4.25C8.82433 4.25 6.24997 6.82436 6.24997 10C6.24997 11.9963 7.26726 13.7549 8.81171 14.7859C6.78209 15.4728 4.91423 16.7907 3.48906 18.5678C2.08569 16.7517 1.25 14.4729 1.25 12ZM4.50285 19.7042C6.43869 21.5883 9.08428 22.75 12 22.75C14.9157 22.75 17.5613 21.5883 19.4971 19.7043C17.6086 17.2336 14.7817 15.75 12 15.75C9.21828 15.75 6.39138 17.2336 4.50285 19.7042ZM12 5.75C9.65276 5.75 7.74997 7.65279 7.74997 10C7.74997 12.3472 9.65276 14.25 12 14.25C14.3472 14.25 16.25 12.3472 16.25 10C16.25 7.65279 14.3472 5.75 12 5.75Z" fill="#18191A"/>
</svg>
