<svg width="24" height="24" viewBox="0 0 24 24" fill="none" xmlns="http://www.w3.org/2000/svg">
<path fill-rule="evenodd" clip-rule="evenodd" d="M6.53033 8.53044C6.23744 8.82334 5.76256 8.82334 5.46967 8.53044C5.17678 8.23755 5.17678 7.76268 5.46967 7.46978L11.4696 1.46988C11.4697 1.46978 11.4698 1.46968 11.4699 1.46958L12 0.939453L12.5295 1.46899C12.5301 1.46951 12.5306 1.47003 12.5311 1.47055L18.5303 7.46978C18.8232 7.76268 18.8232 8.23755 18.5303 8.53044C18.2374 8.82334 17.7626 8.82334 17.4697 8.53044L12.75 3.81077L12.75 16.0001C12.75 16.4143 12.4142 16.7501 12 16.7501C11.5858 16.7501 11.25 16.4143 11.25 16.0001L11.25 3.81077L6.53033 8.53044Z" fill="#18191A"/>
<path d="M2.5 15V15.6C2.5 17.8402 2.5 18.9603 2.93597 19.816C3.31947 20.5686 3.93139 21.1805 4.68404 21.564C5.53968 22 6.65979 22 8.9 22H15.1C17.3402 22 18.4603 22 19.316 21.564C20.0686 21.1805 20.6805 20.5686 21.064 19.816C21.5 18.9603 21.5 17.8402 21.5 15.6V15" stroke="#18191A" stroke-width="1.5" stroke-linecap="round"/>
</svg>
